<mxfile host="app.diagrams.net" modified="2024-01-08T02:59:57.585Z" agent="Mozilla/5.0 (X11; Ubuntu; Linux x86_64; rv:121.0) Gecko/20100101 Firefox/121.0" etag="N2j0iIPjmDT061zv43hq" version="22.1.17" type="device">
  <diagram name="Page-1" id="46zQQ570zGVBCMo_MH5S">
    <mxGraphModel dx="174" dy="329" grid="0" gridSize="10" guides="1" tooltips="1" connect="1" arrows="1" fold="1" page="0" pageScale="1" pageWidth="850" pageHeight="1100" math="0" shadow="0">
      <root>
        <mxCell id="0" />
        <mxCell id="1" parent="0" />
        <mxCell id="6t48B9uuvUim7mdyQ3g0-1" value="Server 1" style="rounded=0;whiteSpace=wrap;html=1;fillColor=#d5e8d4;strokeColor=#82b366;" vertex="1" parent="1">
          <mxGeometry x="731" y="133.5" width="104" height="30" as="geometry" />
        </mxCell>
        <mxCell id="6t48B9uuvUim7mdyQ3g0-2" value="Server 2" style="rounded=0;whiteSpace=wrap;html=1;fillColor=#d5e8d4;strokeColor=#82b366;" vertex="1" parent="1">
          <mxGeometry x="731" y="196.5" width="104" height="30" as="geometry" />
        </mxCell>
        <mxCell id="6t48B9uuvUim7mdyQ3g0-22" style="edgeStyle=orthogonalEdgeStyle;rounded=0;orthogonalLoop=1;jettySize=auto;html=1;exitX=1;exitY=0.5;exitDx=0;exitDy=0;entryX=1;entryY=0.5;entryDx=0;entryDy=0;dashed=1;" edge="1" parent="1" source="6t48B9uuvUim7mdyQ3g0-3" target="6t48B9uuvUim7mdyQ3g0-1">
          <mxGeometry relative="1" as="geometry">
            <mxPoint x="835" y="338.5" as="targetPoint" />
            <Array as="points">
              <mxPoint x="866" y="275" />
              <mxPoint x="866" y="149" />
            </Array>
          </mxGeometry>
        </mxCell>
        <mxCell id="6t48B9uuvUim7mdyQ3g0-3" value="&lt;div&gt;Server 3&lt;/div&gt;&amp;nbsp;(Down)" style="rounded=0;whiteSpace=wrap;html=1;fillColor=#f8cecc;strokeColor=#b85450;" vertex="1" parent="1">
          <mxGeometry x="731" y="259.5" width="104" height="30" as="geometry" />
        </mxCell>
        <mxCell id="6t48B9uuvUim7mdyQ3g0-8" value="" style="endArrow=classic;html=1;rounded=0;entryX=0;entryY=0.5;entryDx=0;entryDy=0;exitX=1;exitY=0.5;exitDx=0;exitDy=0;" edge="1" parent="1" source="6t48B9uuvUim7mdyQ3g0-20" target="6t48B9uuvUim7mdyQ3g0-1">
          <mxGeometry width="50" height="50" relative="1" as="geometry">
            <mxPoint x="648" y="345" as="sourcePoint" />
            <mxPoint x="724" y="310" as="targetPoint" />
          </mxGeometry>
        </mxCell>
        <mxCell id="6t48B9uuvUim7mdyQ3g0-9" value="" style="endArrow=classic;html=1;rounded=0;exitX=1;exitY=0.5;exitDx=0;exitDy=0;entryX=0;entryY=0.5;entryDx=0;entryDy=0;" edge="1" parent="1" source="6t48B9uuvUim7mdyQ3g0-20" target="6t48B9uuvUim7mdyQ3g0-3">
          <mxGeometry width="50" height="50" relative="1" as="geometry">
            <mxPoint x="648" y="345" as="sourcePoint" />
            <mxPoint x="732" y="266" as="targetPoint" />
          </mxGeometry>
        </mxCell>
        <mxCell id="6t48B9uuvUim7mdyQ3g0-10" value="" style="endArrow=classic;html=1;rounded=0;entryX=0;entryY=0.5;entryDx=0;entryDy=0;exitX=1;exitY=0.5;exitDx=0;exitDy=0;" edge="1" parent="1" source="6t48B9uuvUim7mdyQ3g0-20" target="6t48B9uuvUim7mdyQ3g0-2">
          <mxGeometry width="50" height="50" relative="1" as="geometry">
            <mxPoint x="648" y="345" as="sourcePoint" />
            <mxPoint x="769" y="410" as="targetPoint" />
          </mxGeometry>
        </mxCell>
        <mxCell id="6t48B9uuvUim7mdyQ3g0-13" value="Request 2" style="text;html=1;strokeColor=none;fillColor=none;align=center;verticalAlign=middle;whiteSpace=wrap;rounded=0;rotation=0;" vertex="1" parent="1">
          <mxGeometry x="641" y="191" width="98.84" height="30" as="geometry" />
        </mxCell>
        <mxCell id="6t48B9uuvUim7mdyQ3g0-14" value="Request 3" style="text;html=1;strokeColor=none;fillColor=none;align=center;verticalAlign=middle;whiteSpace=wrap;rounded=0;rotation=35;" vertex="1" parent="1">
          <mxGeometry x="638" y="221" width="98.84" height="30" as="geometry" />
        </mxCell>
        <mxCell id="6t48B9uuvUim7mdyQ3g0-20" value="&lt;div&gt;Load&lt;/div&gt;&lt;div&gt;Balancer&lt;br&gt;&lt;/div&gt;" style="rounded=0;whiteSpace=wrap;html=1;" vertex="1" parent="1">
          <mxGeometry x="589" y="125" width="55" height="173" as="geometry" />
        </mxCell>
        <mxCell id="6t48B9uuvUim7mdyQ3g0-23" value="&lt;div&gt;Request 1&lt;/div&gt;" style="text;html=1;strokeColor=none;fillColor=none;align=center;verticalAlign=middle;whiteSpace=wrap;rounded=0;rotation=321;" vertex="1" parent="1">
          <mxGeometry x="635" y="159" width="98.84" height="30" as="geometry" />
        </mxCell>
        <mxCell id="6t48B9uuvUim7mdyQ3g0-24" value="Request 3 Redirected to next healthy server" style="text;html=1;strokeColor=none;fillColor=none;align=center;verticalAlign=middle;whiteSpace=wrap;rounded=0;rotation=0;" vertex="1" parent="1">
          <mxGeometry x="867" y="196.5" width="101" height="30" as="geometry" />
        </mxCell>
        <mxCell id="6t48B9uuvUim7mdyQ3g0-30" value="Clients" style="whiteSpace=wrap;html=1;aspect=fixed;" vertex="1" parent="1">
          <mxGeometry x="419" y="171.5" width="80" height="80" as="geometry" />
        </mxCell>
        <mxCell id="6t48B9uuvUim7mdyQ3g0-32" value="Request 1" style="text;html=1;strokeColor=none;fillColor=none;align=center;verticalAlign=middle;whiteSpace=wrap;rounded=0;rotation=0;" vertex="1" parent="1">
          <mxGeometry x="487" y="174.5" width="98.84" height="30" as="geometry" />
        </mxCell>
        <mxCell id="6t48B9uuvUim7mdyQ3g0-36" value="" style="endArrow=classic;html=1;rounded=0;entryX=-0.003;entryY=0.419;entryDx=0;entryDy=0;entryPerimeter=0;" edge="1" parent="1">
          <mxGeometry width="50" height="50" relative="1" as="geometry">
            <mxPoint x="499" y="195" as="sourcePoint" />
            <mxPoint x="589" y="194" as="targetPoint" />
          </mxGeometry>
        </mxCell>
        <mxCell id="6t48B9uuvUim7mdyQ3g0-42" value="Request 2" style="text;html=1;strokeColor=none;fillColor=none;align=center;verticalAlign=middle;whiteSpace=wrap;rounded=0;rotation=0;" vertex="1" parent="1">
          <mxGeometry x="487" y="192" width="98.84" height="30" as="geometry" />
        </mxCell>
        <mxCell id="6t48B9uuvUim7mdyQ3g0-43" value="" style="endArrow=classic;html=1;rounded=0;entryX=-0.003;entryY=0.419;entryDx=0;entryDy=0;entryPerimeter=0;" edge="1" parent="1">
          <mxGeometry width="50" height="50" relative="1" as="geometry">
            <mxPoint x="499" y="212.5" as="sourcePoint" />
            <mxPoint x="589" y="211.5" as="targetPoint" />
          </mxGeometry>
        </mxCell>
        <mxCell id="6t48B9uuvUim7mdyQ3g0-44" value="Request 3" style="text;html=1;strokeColor=none;fillColor=none;align=center;verticalAlign=middle;whiteSpace=wrap;rounded=0;rotation=0;" vertex="1" parent="1">
          <mxGeometry x="487" y="211" width="98.84" height="30" as="geometry" />
        </mxCell>
        <mxCell id="6t48B9uuvUim7mdyQ3g0-45" value="" style="endArrow=classic;html=1;rounded=0;entryX=-0.003;entryY=0.419;entryDx=0;entryDy=0;entryPerimeter=0;" edge="1" parent="1">
          <mxGeometry width="50" height="50" relative="1" as="geometry">
            <mxPoint x="499" y="231.5" as="sourcePoint" />
            <mxPoint x="589" y="230.5" as="targetPoint" />
          </mxGeometry>
        </mxCell>
      </root>
    </mxGraphModel>
  </diagram>
</mxfile>
